<svg width="22" height="24" viewBox="0 0 22 24" fill="none" xmlns="http://www.w3.org/2000/svg">
<path d="M15.3959 7.37135C15.4889 7.47267 15.5627 7.59298 15.613 7.72542C15.6633 7.85785 15.6892 7.99981 15.6892 8.14317C15.6892 8.28653 15.6633 8.42849 15.613 8.56092C15.5627 8.69336 15.4889 8.81367 15.3959 8.91499L12.4139 12.167L15.0899 15.0852C15.2776 15.2899 15.383 15.5675 15.383 15.857C15.383 16.1465 15.2776 16.4241 15.0899 16.6288C14.9023 16.8335 14.6478 16.9485 14.3824 16.9485C14.1171 16.9485 13.8626 16.8335 13.6749 16.6288L10.9999 13.7095L8.32494 16.6288C8.1373 16.8335 7.88281 16.9485 7.61745 16.9485C7.35208 16.9485 7.09759 16.8335 6.90994 16.6288C6.7223 16.4241 6.61689 16.1465 6.61689 15.857C6.61689 15.5675 6.7223 15.2899 6.90994 15.0852L9.58595 12.167L6.60394 8.91499C6.51103 8.81356 6.43735 8.69316 6.38709 8.56067C6.33683 8.42817 6.31099 8.28618 6.31104 8.14279C6.31108 7.9994 6.33702 7.85742 6.38736 7.72496C6.4377 7.59251 6.51147 7.47216 6.60444 7.37081C6.69742 7.26945 6.80779 7.18906 6.92924 7.13424C7.05069 7.07941 7.18086 7.05122 7.3123 7.05127C7.44374 7.05132 7.57388 7.07961 7.6953 7.13453C7.81672 7.18945 7.92704 7.26992 8.01995 7.37135L10.9999 10.6255L13.9809 7.37244C14.0738 7.27102 14.1841 7.19055 14.3055 7.13565C14.4269 7.08075 14.557 7.0525 14.6884 7.0525C14.8199 7.0525 14.95 7.08075 15.0714 7.13565C15.1928 7.19055 15.3031 7.26992 15.3959 7.37135Z" fill="#E6E6E6"/>
<path fill-rule="evenodd" clip-rule="evenodd" d="M3 0C2.20435 0 1.44129 0.344804 0.87868 0.95856C0.31607 1.57232 0 2.40475 0 3.27273V20.7273C0 21.5953 0.31607 22.4277 0.87868 23.0414C1.44129 23.6552 2.20435 24 3 24H19C19.7956 24 20.5587 23.6552 21.1213 23.0414C21.6839 22.4277 22 21.5953 22 20.7273V3.27273C22 2.40475 21.6839 1.57232 21.1213 0.95856C20.5587 0.344804 19.7956 0 19 0H3ZM19 2.18182H3C2.73478 2.18182 2.48043 2.29675 2.29289 2.50134C2.10536 2.70592 2 2.9834 2 3.27273V20.7273C2 21.0166 2.10536 21.2941 2.29289 21.4987C2.48043 21.7032 2.73478 21.8182 3 21.8182H19C19.2652 21.8182 19.5196 21.7032 19.7071 21.4987C19.8946 21.2941 20 21.0166 20 20.7273V3.27273C20 2.9834 19.8946 2.70592 19.7071 2.50134C19.5196 2.29675 19.2652 2.18182 19 2.18182Z" fill="#E6E6E6"/>
</svg>
