<svg width="58" height="58" viewBox="0 0 58 58" fill="none" xmlns="http://www.w3.org/2000/svg">
<path d="M44.4062 0H13.5938C6.08613 0 0 6.08613 0 13.5938V44.4062C0 51.9139 6.08613 58 13.5938 58H44.4062C51.9139 58 58 51.9139 58 44.4062V13.5938C58 6.08613 51.9139 0 44.4062 0Z" fill="#F4F2ED"/>
<mask id="mask0_11_53" style="mask-type:luminance" maskUnits="userSpaceOnUse" x="13" y="6" width="32" height="46">
<path d="M13.8203 6.34375H44.0347V51.6562H13.8203V6.34375Z" fill="white"/>
</mask>
<g mask="url(#mask0_11_53)">
<path d="M21.3752 51.656C25.544 51.656 28.9272 48.2727 28.9272 44.104V36.5518H21.3752C17.2065 36.5518 13.823 39.9352 13.823 44.104C13.823 48.2727 17.2065 51.656 21.3752 51.656Z" fill="#0ACF83"/>
<path d="M13.823 29.0002C13.823 24.8315 17.2065 21.4482 21.3752 21.4482H28.9272V36.5523H21.3752C17.2065 36.5523 13.823 33.169 13.823 29.0002Z" fill="#A259FF"/>
<path d="M13.823 13.8958C13.823 9.72701 17.2065 6.34375 21.3752 6.34375H28.9272V21.448H21.3752C17.2065 21.448 13.823 18.0645 13.823 13.8958Z" fill="#F24E1E"/>
<path d="M28.9275 6.34375H36.4795C40.6482 6.34375 44.0317 9.72701 44.0317 13.8958C44.0317 18.0645 40.6482 21.448 36.4795 21.448H28.9275V6.34375Z" fill="#FF7262"/>
<path d="M44.0317 29.0002C44.0317 33.169 40.6482 36.5523 36.4795 36.5523C32.3107 36.5523 28.9275 33.169 28.9275 29.0002C28.9275 24.8315 32.3107 21.4482 36.4795 21.4482C40.6482 21.4482 44.0317 24.8315 44.0317 29.0002Z" fill="#1ABCFE"/>
</g>
</svg>
