<svg width="50" height="50" viewBox="0 0 50 50" fill="none" xmlns="http://www.w3.org/2000/svg">
<path d="M38.2812 0H11.7188C5.24666 0 0 5.24666 0 11.7188V38.2812C0 44.7533 5.24666 50 11.7188 50H38.2812C44.7533 50 50 44.7533 50 38.2812V11.7188C50 5.24666 44.7533 0 38.2812 0Z" fill="#F0DB4F"/>
<path d="M13.1472 41.7835L16.9733 39.4679C17.7116 40.7767 18.3831 41.8841 19.9938 41.8841C21.5378 41.8841 22.5112 41.2802 22.5112 38.931V22.9548H27.2101V38.9974C27.2101 43.864 24.3573 46.0792 20.1952 46.0792C16.4364 46.0792 14.2546 44.1325 13.147 41.7831M29.7622 41.28L33.588 39.0649C34.5952 40.7097 35.9042 41.9179 38.2198 41.9179C40.1669 41.9179 41.4083 40.9444 41.4083 39.6019C41.4083 37.9909 40.1329 37.4202 37.9849 36.4808L36.8104 35.9771C33.4204 34.5341 31.1716 32.7216 31.1716 28.8954C31.1716 25.3712 33.8567 22.686 38.0522 22.686C41.0394 22.686 43.1874 23.7267 44.7312 26.4452L41.0728 28.7946C40.2671 27.3515 39.3948 26.781 38.0522 26.781C36.6761 26.781 35.8034 27.6536 35.8034 28.7946C35.8034 30.2042 36.6761 30.7749 38.6897 31.6478L39.8644 32.1511C43.8583 33.863 46.1071 35.6079 46.1071 39.5347C46.1071 43.764 42.7845 46.0796 38.3206 46.0796C33.9575 46.0796 31.1382 43.9987 29.7622 41.28Z" fill="#323330"/>
</svg>
