<svg width="59" height="59" viewBox="0 0 59 59" fill="none" xmlns="http://www.w3.org/2000/svg">
<path d="M45.1719 0H13.8281C6.19106 0 0 6.19106 0 13.8281V45.1719C0 52.8089 6.19106 59 13.8281 59H45.1719C52.8089 59 59 52.8089 59 45.1719V13.8281C59 6.19106 52.8089 0 45.1719 0Z" fill="#242938"/>
<path d="M29.4998 33.8675C31.8746 33.8675 33.7994 31.9424 33.7994 29.5679C33.7994 27.1934 31.8746 25.2682 29.4998 25.2682C27.1251 25.2682 25.2002 27.1934 25.2002 29.5679C25.2002 31.9424 27.1253 33.8675 29.4998 33.8675Z" fill="#00D8FF"/>
<path d="M29.5005 20.8259C35.2732 20.8259 40.636 21.6542 44.6796 23.0465C49.5515 24.7236 52.5469 27.2659 52.5469 29.5681C52.5469 31.967 49.3724 34.6679 44.1405 36.4012C40.1852 37.7117 34.9803 38.3957 29.5005 38.3957C23.8821 38.3957 18.5617 37.7536 14.5617 36.3867C9.50107 34.657 6.45312 31.9214 6.45312 29.5681C6.45312 27.2846 9.31324 24.7619 14.1167 23.0873C18.1752 21.6722 23.6703 20.8259 29.4995 20.8259H29.5005Z" stroke="#00D8FF" stroke-width="0.556938"/>
<path d="M21.8905 25.222C24.7746 20.2213 28.171 15.9895 31.3971 13.1823C35.2837 9.79976 38.9828 8.47502 40.9768 9.62483C43.0549 10.8233 43.8088 14.9228 42.6968 20.3209C41.8567 24.4018 39.8484 29.2522 37.1107 33.9994C34.3038 38.8665 31.0899 43.1546 27.9078 45.9359C23.8813 49.4556 19.9885 50.7294 17.95 49.5538C15.9719 48.4139 15.2155 44.6754 16.1645 39.6777C16.9663 35.4548 18.9785 30.2718 21.8896 25.222H21.8905Z" stroke="#00D8FF" stroke-width="0.556938"/>
<path d="M21.8974 34.0122C19.0052 29.0171 17.0361 23.9601 16.2143 19.7633C15.2249 14.7066 15.9243 10.8405 17.9167 9.68719C19.993 8.48507 23.9209 9.87941 28.0422 13.5388C31.1581 16.3053 34.3577 20.4669 37.1033 25.2095C39.9182 30.0719 42.0279 34.9982 42.8486 39.1439C43.8871 44.3903 43.0466 48.3988 41.0099 49.5776C39.0339 50.7217 35.4176 49.5106 31.5616 46.1923C28.3037 43.3889 24.8181 39.0572 21.8974 34.0122Z" stroke="#00D8FF" stroke-width="0.556938"/>
</svg>
