<svg width="166" height="148" viewBox="0 0 166 148" fill="none" xmlns="http://www.w3.org/2000/svg">
<path d="M0 65.7778V0H73.7778V65.7778H0ZM18.4444 49.3333H55.3333V16.4444H18.4444V49.3333ZM0 148V82.2222H73.7778V148H0ZM18.4444 131.556H55.3333V98.6667H18.4444V131.556ZM92.2222 65.7778V0H166V65.7778H92.2222ZM110.667 49.3333H147.556V16.4444H110.667V49.3333ZM147.556 148V131.556H166V148H147.556ZM92.2222 98.6667V82.2222H110.667V98.6667H92.2222ZM110.667 115.111V98.6667H129.111V115.111H110.667ZM92.2222 131.556V115.111H110.667V131.556H92.2222ZM110.667 148V131.556H129.111V148H110.667ZM129.111 131.556V115.111H147.556V131.556H129.111ZM129.111 98.6667V82.2222H147.556V98.6667H129.111ZM147.556 115.111V98.6667H166V115.111H147.556Z" fill="#3D3D3D"/>
</svg>
